<?xml version="1.0" encoding="utf-8"?>
<!-- Generator: Adobe Illustrator 16.0.0, SVG Export Plug-In . SVG Version: 6.00 Build 0)  -->
<!DOCTYPE svg PUBLIC "-//W3C//DTD SVG 1.1//EN" "http://www.w3.org/Graphics/SVG/1.1/DTD/svg11.dtd">
<svg version="1.1" id="Layer_1" xmlns="http://www.w3.org/2000/svg" xmlns:xlink="http://www.w3.org/1999/xlink" x="0px" y="0px"
	 width="220px" height="60px" viewBox="0 0 220 60" enable-background="new 0 0 220 60" xml:space="preserve">
<polygon fill="#676C71" points="103.569,58.35 71.588,2.958 89.177,2.958 112.363,43.119 "/>
<polygon fill="#34C0E2" points="93.302,2.958 135.553,2.958 114.426,39.546 "/>
<rect x="137.584" y="14.31" fill="none" width="87.497" height="46.858"/>
<g enable-background="new    ">
	<path fill="#666B71" d="M138.896,14.306h6.358v40.46h-6.358V14.306z"/>
	<path fill="#666B71" d="M163.172,54.766c-0.348-1.04-0.578-1.676-0.578-4.971v-6.358c0-3.757-1.271-5.144-4.162-5.144h-2.196
		v16.473h-6.358v-40.46h9.596c6.589,0,9.421,3.063,9.421,9.306v3.179c0,4.162-1.329,6.879-4.161,8.208
		c3.179,1.329,4.219,4.393,4.219,8.612v6.242c0,1.965,0.059,3.41,0.694,4.913H163.172z M156.235,20.085v12.427h2.485
		c2.37,0,3.815-1.041,3.815-4.277v-3.988c0-2.89-0.983-4.162-3.237-4.162H156.235z"/>
	<path fill="#666B71" d="M193.687,54.766h-6.416l-1.098-7.341h-7.803l-1.099,7.341h-5.838l6.474-40.46h9.306L193.687,54.766z
		 M179.179,41.934h6.127l-3.063-20.461L179.179,41.934z"/>
	<path fill="#666B71" d="M196.633,14.306h6.357v34.68h10.462v5.78h-16.819V14.306z"/>
</g>
<rect x="5.081" y="14.31" fill="none" width="87.497" height="46.858"/>
<g enable-background="new    ">
	<path fill="#666B71" d="M5.543,14.306h19.652v5.78h-6.647v34.68H12.19v-34.68H5.543V14.306z"/>
	<path fill="#666B71" d="M46.348,54.766h-6.416l-1.098-7.341h-7.803l-1.098,7.341h-5.838l6.474-40.46h9.306L46.348,54.766z
		 M31.84,41.934h6.127l-3.063-20.461L31.84,41.934z"/>
	<path fill="#666B71" d="M68.136,24.305v5.26c0,6.474-3.121,10-9.479,10h-3.006v15.201h-6.358v-40.46h9.364
		C65.015,14.306,68.136,17.831,68.136,24.305z M55.651,20.085v13.699h3.006c2.023,0,3.121-0.925,3.121-3.815V23.9
		c0-2.89-1.098-3.815-3.121-3.815H55.651z"/>
</g>
</svg>
